<mxfile host="app.diagrams.net" modified="2024-03-05T11:28:53.084Z" agent="Mozilla/5.0 (Windows NT 10.0; Win64; x64) AppleWebKit/537.36 (KHTML, like Gecko) Chrome/122.0.0.0 Safari/537.36 Edg/122.0.0.0" etag="B5KqgritycICyxL_RIs3" version="24.0.1" type="device">
  <diagram name="Страница — 1" id="2E-9Vd8yUCMT_aNa_cgV">
    <mxGraphModel dx="1386" dy="793" grid="1" gridSize="10" guides="1" tooltips="1" connect="1" arrows="1" fold="1" page="1" pageScale="1" pageWidth="827" pageHeight="1169" math="0" shadow="0">
      <root>
        <mxCell id="0" />
        <mxCell id="1" parent="0" />
        <mxCell id="gtLT2CvkEkQXwpYcFBap-19" style="edgeStyle=orthogonalEdgeStyle;rounded=0;orthogonalLoop=1;jettySize=auto;html=1;" edge="1" parent="1" source="gtLT2CvkEkQXwpYcFBap-18">
          <mxGeometry relative="1" as="geometry">
            <mxPoint x="290" y="130" as="targetPoint" />
          </mxGeometry>
        </mxCell>
        <mxCell id="gtLT2CvkEkQXwpYcFBap-18" value="Заказчик&amp;nbsp;" style="rounded=0;whiteSpace=wrap;html=1;" vertex="1" parent="1">
          <mxGeometry x="90" y="100" width="120" height="60" as="geometry" />
        </mxCell>
        <mxCell id="gtLT2CvkEkQXwpYcFBap-22" style="edgeStyle=orthogonalEdgeStyle;rounded=0;orthogonalLoop=1;jettySize=auto;html=1;entryX=0;entryY=0.5;entryDx=0;entryDy=0;" edge="1" parent="1" source="gtLT2CvkEkQXwpYcFBap-20" target="gtLT2CvkEkQXwpYcFBap-21">
          <mxGeometry relative="1" as="geometry" />
        </mxCell>
        <mxCell id="gtLT2CvkEkQXwpYcFBap-20" value="Архитектор" style="rounded=0;whiteSpace=wrap;html=1;" vertex="1" parent="1">
          <mxGeometry x="294" y="100" width="120" height="60" as="geometry" />
        </mxCell>
        <mxCell id="gtLT2CvkEkQXwpYcFBap-24" style="edgeStyle=orthogonalEdgeStyle;rounded=0;orthogonalLoop=1;jettySize=auto;html=1;exitX=1;exitY=0.5;exitDx=0;exitDy=0;entryX=0;entryY=0.5;entryDx=0;entryDy=0;" edge="1" parent="1" source="gtLT2CvkEkQXwpYcFBap-21" target="gtLT2CvkEkQXwpYcFBap-23">
          <mxGeometry relative="1" as="geometry" />
        </mxCell>
        <mxCell id="gtLT2CvkEkQXwpYcFBap-21" value="Проектировщик" style="rounded=0;whiteSpace=wrap;html=1;" vertex="1" parent="1">
          <mxGeometry x="500" y="100" width="120" height="60" as="geometry" />
        </mxCell>
        <mxCell id="gtLT2CvkEkQXwpYcFBap-25" style="edgeStyle=orthogonalEdgeStyle;rounded=0;orthogonalLoop=1;jettySize=auto;html=1;exitX=1;exitY=0.5;exitDx=0;exitDy=0;" edge="1" parent="1" source="gtLT2CvkEkQXwpYcFBap-23" target="gtLT2CvkEkQXwpYcFBap-26">
          <mxGeometry relative="1" as="geometry">
            <mxPoint x="890" y="130" as="targetPoint" />
          </mxGeometry>
        </mxCell>
        <mxCell id="gtLT2CvkEkQXwpYcFBap-23" value="Генеральный подрядчик" style="rounded=0;whiteSpace=wrap;html=1;" vertex="1" parent="1">
          <mxGeometry x="710" y="100" width="120" height="60" as="geometry" />
        </mxCell>
        <mxCell id="gtLT2CvkEkQXwpYcFBap-50" style="edgeStyle=orthogonalEdgeStyle;rounded=0;orthogonalLoop=1;jettySize=auto;html=1;entryX=0;entryY=0.5;entryDx=0;entryDy=0;" edge="1" parent="1" source="gtLT2CvkEkQXwpYcFBap-26" target="gtLT2CvkEkQXwpYcFBap-49">
          <mxGeometry relative="1" as="geometry" />
        </mxCell>
        <mxCell id="gtLT2CvkEkQXwpYcFBap-26" value="Подрядчики" style="rounded=0;whiteSpace=wrap;html=1;" vertex="1" parent="1">
          <mxGeometry x="870" y="100" width="120" height="60" as="geometry" />
        </mxCell>
        <mxCell id="gtLT2CvkEkQXwpYcFBap-32" style="edgeStyle=orthogonalEdgeStyle;rounded=0;orthogonalLoop=1;jettySize=auto;html=1;exitX=1;exitY=0.25;exitDx=0;exitDy=0;entryX=0;entryY=0.25;entryDx=0;entryDy=0;" edge="1" parent="1" source="gtLT2CvkEkQXwpYcFBap-27" target="gtLT2CvkEkQXwpYcFBap-28">
          <mxGeometry relative="1" as="geometry">
            <Array as="points">
              <mxPoint x="252" y="268" />
              <mxPoint x="252" y="270" />
              <mxPoint x="339" y="270" />
            </Array>
          </mxGeometry>
        </mxCell>
        <mxCell id="gtLT2CvkEkQXwpYcFBap-27" value="" style="rounded=0;whiteSpace=wrap;html=1;" vertex="1" parent="1">
          <mxGeometry x="135" y="170" width="30" height="810" as="geometry" />
        </mxCell>
        <mxCell id="gtLT2CvkEkQXwpYcFBap-34" style="edgeStyle=orthogonalEdgeStyle;rounded=0;orthogonalLoop=1;jettySize=auto;html=1;exitX=1;exitY=0.25;exitDx=0;exitDy=0;entryX=0;entryY=0.25;entryDx=0;entryDy=0;" edge="1" parent="1" source="gtLT2CvkEkQXwpYcFBap-28" target="gtLT2CvkEkQXwpYcFBap-29">
          <mxGeometry relative="1" as="geometry">
            <Array as="points">
              <mxPoint x="457" y="268" />
              <mxPoint x="457" y="270" />
              <mxPoint x="545" y="270" />
            </Array>
          </mxGeometry>
        </mxCell>
        <mxCell id="gtLT2CvkEkQXwpYcFBap-28" value="" style="rounded=0;whiteSpace=wrap;html=1;" vertex="1" parent="1">
          <mxGeometry x="339" y="170" width="30" height="810" as="geometry" />
        </mxCell>
        <mxCell id="gtLT2CvkEkQXwpYcFBap-36" style="edgeStyle=orthogonalEdgeStyle;rounded=0;orthogonalLoop=1;jettySize=auto;html=1;exitX=1;exitY=0.25;exitDx=0;exitDy=0;entryX=0;entryY=0.25;entryDx=0;entryDy=0;" edge="1" parent="1" source="gtLT2CvkEkQXwpYcFBap-29" target="gtLT2CvkEkQXwpYcFBap-30">
          <mxGeometry relative="1" as="geometry">
            <Array as="points">
              <mxPoint x="755" y="268" />
            </Array>
          </mxGeometry>
        </mxCell>
        <mxCell id="gtLT2CvkEkQXwpYcFBap-29" value="" style="rounded=0;whiteSpace=wrap;html=1;" vertex="1" parent="1">
          <mxGeometry x="545" y="170" width="30" height="810" as="geometry" />
        </mxCell>
        <mxCell id="gtLT2CvkEkQXwpYcFBap-39" style="edgeStyle=orthogonalEdgeStyle;rounded=0;orthogonalLoop=1;jettySize=auto;html=1;exitX=1;exitY=0.25;exitDx=0;exitDy=0;entryX=0;entryY=0.25;entryDx=0;entryDy=0;" edge="1" parent="1" source="gtLT2CvkEkQXwpYcFBap-30" target="gtLT2CvkEkQXwpYcFBap-31">
          <mxGeometry relative="1" as="geometry">
            <Array as="points">
              <mxPoint x="850" y="268" />
              <mxPoint x="850" y="270" />
              <mxPoint x="915" y="270" />
            </Array>
          </mxGeometry>
        </mxCell>
        <mxCell id="gtLT2CvkEkQXwpYcFBap-30" value="" style="rounded=0;whiteSpace=wrap;html=1;" vertex="1" parent="1">
          <mxGeometry x="755" y="170" width="30" height="810" as="geometry" />
        </mxCell>
        <mxCell id="gtLT2CvkEkQXwpYcFBap-43" style="edgeStyle=orthogonalEdgeStyle;rounded=0;orthogonalLoop=1;jettySize=auto;html=1;entryX=1;entryY=0.5;entryDx=0;entryDy=0;" edge="1" parent="1" source="gtLT2CvkEkQXwpYcFBap-31" target="gtLT2CvkEkQXwpYcFBap-27">
          <mxGeometry relative="1" as="geometry">
            <Array as="points">
              <mxPoint x="720" y="525" />
              <mxPoint x="720" y="525" />
            </Array>
          </mxGeometry>
        </mxCell>
        <mxCell id="gtLT2CvkEkQXwpYcFBap-31" value="" style="rounded=0;whiteSpace=wrap;html=1;" vertex="1" parent="1">
          <mxGeometry x="915" y="170" width="30" height="810" as="geometry" />
        </mxCell>
        <mxCell id="gtLT2CvkEkQXwpYcFBap-33" value="Заказчик обращается к архитектору для разработки дизайна и проекта строения." style="text;html=1;align=center;verticalAlign=middle;whiteSpace=wrap;rounded=0;" vertex="1" parent="1">
          <mxGeometry x="220" y="230" width="60" height="30" as="geometry" />
        </mxCell>
        <mxCell id="gtLT2CvkEkQXwpYcFBap-35" value="Архитектор разрабатывает проект и передает его проектировщику для утверждения и дальнейшей разработки деталей." style="text;html=1;align=center;verticalAlign=middle;whiteSpace=wrap;rounded=0;" vertex="1" parent="1">
          <mxGeometry x="420" y="240" width="60" height="30" as="geometry" />
        </mxCell>
        <mxCell id="gtLT2CvkEkQXwpYcFBap-37" value="После утверждения проекта заказчиком и получения разрешительной документации, начинается поиск генерального подрядчика." style="text;html=1;align=center;verticalAlign=middle;whiteSpace=wrap;rounded=0;" vertex="1" parent="1">
          <mxGeometry x="630" y="240" width="60" height="30" as="geometry" />
        </mxCell>
        <mxCell id="gtLT2CvkEkQXwpYcFBap-38" value="Генеральный подрядчик заключает контракт с подрядчиками по выполнению конкретных работ (электрика, каменщики, столяры и др.)." style="text;html=1;align=center;verticalAlign=middle;whiteSpace=wrap;rounded=0;" vertex="1" parent="1">
          <mxGeometry x="820" y="240" width="60" height="30" as="geometry" />
        </mxCell>
        <mxCell id="gtLT2CvkEkQXwpYcFBap-44" value="Подрядчики начинают выполнение работ по этапам, в соответствии с утвержденным проектом." style="text;html=1;align=center;verticalAlign=middle;whiteSpace=wrap;rounded=0;" vertex="1" parent="1">
          <mxGeometry x="220" y="490" width="60" height="30" as="geometry" />
        </mxCell>
        <mxCell id="gtLT2CvkEkQXwpYcFBap-45" style="edgeStyle=orthogonalEdgeStyle;rounded=0;orthogonalLoop=1;jettySize=auto;html=1;exitX=0;exitY=0.5;exitDx=0;exitDy=0;entryX=1.133;entryY=0.682;entryDx=0;entryDy=0;entryPerimeter=0;" edge="1" parent="1" source="gtLT2CvkEkQXwpYcFBap-30" target="gtLT2CvkEkQXwpYcFBap-27">
          <mxGeometry relative="1" as="geometry">
            <Array as="points">
              <mxPoint x="755" y="654" />
              <mxPoint x="169" y="654" />
            </Array>
          </mxGeometry>
        </mxCell>
        <mxCell id="gtLT2CvkEkQXwpYcFBap-46" value="Генеральный подрядчик контролирует выполнение работ, согласно срокам и качеству." style="text;html=1;align=center;verticalAlign=middle;whiteSpace=wrap;rounded=0;" vertex="1" parent="1">
          <mxGeometry x="640" y="620" width="60" height="30" as="geometry" />
        </mxCell>
        <mxCell id="gtLT2CvkEkQXwpYcFBap-47" style="edgeStyle=orthogonalEdgeStyle;rounded=0;orthogonalLoop=1;jettySize=auto;html=1;exitX=0;exitY=0.75;exitDx=0;exitDy=0;entryX=1.033;entryY=0.875;entryDx=0;entryDy=0;entryPerimeter=0;" edge="1" parent="1" source="gtLT2CvkEkQXwpYcFBap-30" target="gtLT2CvkEkQXwpYcFBap-27">
          <mxGeometry relative="1" as="geometry">
            <Array as="points">
              <mxPoint x="755" y="791" />
            </Array>
          </mxGeometry>
        </mxCell>
        <mxCell id="gtLT2CvkEkQXwpYcFBap-48" value="По завершении строительства происходит приемка объекта заказчиком." style="text;html=1;align=center;verticalAlign=middle;whiteSpace=wrap;rounded=0;" vertex="1" parent="1">
          <mxGeometry x="210" y="760" width="60" height="30" as="geometry" />
        </mxCell>
        <mxCell id="gtLT2CvkEkQXwpYcFBap-49" value="Компания" style="rounded=0;whiteSpace=wrap;html=1;" vertex="1" parent="1">
          <mxGeometry x="1060" y="100" width="120" height="60" as="geometry" />
        </mxCell>
        <mxCell id="gtLT2CvkEkQXwpYcFBap-52" value="" style="rounded=0;whiteSpace=wrap;html=1;" vertex="1" parent="1">
          <mxGeometry x="1090" y="170" width="40" height="810" as="geometry" />
        </mxCell>
        <mxCell id="gtLT2CvkEkQXwpYcFBap-53" style="edgeStyle=orthogonalEdgeStyle;rounded=0;orthogonalLoop=1;jettySize=auto;html=1;exitX=0;exitY=0.75;exitDx=0;exitDy=0;entryX=0.7;entryY=0.915;entryDx=0;entryDy=0;entryPerimeter=0;" edge="1" parent="1" source="gtLT2CvkEkQXwpYcFBap-52" target="gtLT2CvkEkQXwpYcFBap-27">
          <mxGeometry relative="1" as="geometry" />
        </mxCell>
        <mxCell id="gtLT2CvkEkQXwpYcFBap-54" value="По окончании приемки компания предоставляет заказчику все необходимые документы и занимается устранением возможных недочетов." style="text;html=1;align=center;verticalAlign=middle;whiteSpace=wrap;rounded=0;" vertex="1" parent="1">
          <mxGeometry x="990" y="740" width="60" height="30" as="geometry" />
        </mxCell>
        <mxCell id="gtLT2CvkEkQXwpYcFBap-55" style="edgeStyle=orthogonalEdgeStyle;rounded=0;orthogonalLoop=1;jettySize=auto;html=1;exitX=1;exitY=1;exitDx=0;exitDy=0;entryX=0.075;entryY=0.881;entryDx=0;entryDy=0;entryPerimeter=0;" edge="1" parent="1" source="gtLT2CvkEkQXwpYcFBap-27" target="gtLT2CvkEkQXwpYcFBap-52">
          <mxGeometry relative="1" as="geometry">
            <Array as="points">
              <mxPoint x="165" y="940" />
              <mxPoint x="628" y="940" />
              <mxPoint x="628" y="884" />
            </Array>
          </mxGeometry>
        </mxCell>
        <mxCell id="gtLT2CvkEkQXwpYcFBap-56" value="Заказчик оплачивает оставшуюся сумму согласно договору." style="text;html=1;align=center;verticalAlign=middle;whiteSpace=wrap;rounded=0;" vertex="1" parent="1">
          <mxGeometry x="220" y="910" width="60" height="30" as="geometry" />
        </mxCell>
        <mxCell id="gtLT2CvkEkQXwpYcFBap-57" style="edgeStyle=orthogonalEdgeStyle;rounded=0;orthogonalLoop=1;jettySize=auto;html=1;exitX=0;exitY=1;exitDx=0;exitDy=0;entryX=0.933;entryY=0.983;entryDx=0;entryDy=0;entryPerimeter=0;" edge="1" parent="1" source="gtLT2CvkEkQXwpYcFBap-52" target="gtLT2CvkEkQXwpYcFBap-27">
          <mxGeometry relative="1" as="geometry">
            <Array as="points">
              <mxPoint x="1090" y="966" />
            </Array>
          </mxGeometry>
        </mxCell>
        <mxCell id="gtLT2CvkEkQXwpYcFBap-58" value="Компания завершает проект и заключает с заказчиком акт приемки-передачи выполненных работ." style="text;html=1;align=center;verticalAlign=middle;whiteSpace=wrap;rounded=0;" vertex="1" parent="1">
          <mxGeometry x="990" y="940" width="60" height="30" as="geometry" />
        </mxCell>
      </root>
    </mxGraphModel>
  </diagram>
</mxfile>
